# AST/ASF file generated using VICON BodyLanguage
# -----------------------------------------------
:version 1.10
:name VICON
:units
  mass 1.0
  length 0.45
  angle deg
:documentation
   .ast/.asf automatically generated from VICON data using
   VICON BodyBuilder and BodyLanguage model FoxedUp or BRILLIANT.MOD
:root
   order TX TY TZ RX RY RZ
   axis XYZ
   position 0 0 0  
   orientation 0 0 0 
:bonedata
  begin
     id 1 
     name lhipjoint
     direction 0.630305 -0.712092 0.309259 
     length 2.29033 
     axis 0 0 0  XYZ
  end
  begin
     id 2 
     name lfemur
     direction 0.34202 -0.939693 0  
     length 6.43538  
     axis 0 0 20  XYZ
    dof rx ry rz
    limits (-160.0 20.0)
           (-70.0 70.0)
           (-60.0 70.0)
  end
  begin
     id 3 
     name ltibia
     direction 0.34202 -0.939693 0   
     length 7.43097   
     axis 0 0 20   XYZ
    dof rx
    limits (-10.0 170.0)
  end
  begin
     id 4 
     name lfoot
     direction 0.0334653 -0.0919451 0.995202   
     length 1.78438   
     axis -90 7.62852e-016 20   XYZ
    dof rx rz
    limits (-45.0 90.0)
           (-70.0 20.0)
  end
  begin
     id 5 
     name ltoes
     direction 1.53535e-011 -4.21933e-011 1   
     length 0.90832   
     axis -90 7.62852e-016 20   XYZ
    dof rx
    limits (-90.0 20.0)
  end
  begin
     id 6 
     name rhipjoint
     direction -0.682059 -0.67077 0.291312   
     length 2.43143  
     axis 0 0 0  XYZ 
  end
  begin
     id 7 
     name rfemur
     direction -0.34202 -0.939693 0   
     length 6.63488   
     axis 0 0 -20   XYZ
    dof rx ry rz
    limits (-160.0 20.0)
           (-70.0 70.0)
           (-70.0 60.0)
  end
  begin
     id 8 
     name rtibia
     direction -0.34202 -0.939693 0   
     length 6.86532   
     axis 0 0 -20   XYZ
    dof rx
    limits (-10.0 170.0)
 end
 begin
     id 9 
     name rfoot
     direction -0.105199 -0.289033 0.951521   
     length 1.77126  
     axis -90 -7.62852e-016 -20   XYZ
    dof rx rz
    limits (-45.0 90.0)
           (-20.0 70.0)
  end
  begin
     id 10 
     name rtoes
     direction -1.53551e-011 -4.21978e-011 1   
     length 0.889273   
     axis -90 -7.62852e-016 -20   XYZ
    dof rx
    limits (-90.0 20.0)
  end
  begin
     id 11 
     name lowerback
     direction -0.0514305 0.998089 0.034245   
     length 2.02077   
     axis 0 0 0   XYZ
    dof rx ry rz
    limits (-20.0 45.0)
           (-30.0 30.0)
           (-30.0 30.0)
  end
  begin
     id 12 
     name upperback
     direction 0.0203189 0.999449 -0.0262315   
     length 2.01413   
     axis 0 0 0   XYZ
    dof rx ry rz
    limits (-20.0 45.0)
           (-30.0 30.0)
           (-30.0 30.0)
  end
  begin
     id 13 
     name thorax
     direction 0.0452736 0.998142 -0.0407729   
     length 2.02986   
     axis 0 0 0   XYZ
    dof rx ry rz
    limits (-20.0 45.0)
           (-30.0 30.0)
           (-30.0 30.0)
  end
  begin
     id 14 
     name lowerneck
     direction -0.0180464 0.999645 -0.0195774   
     length 1.59034   
     axis 0 0 0   XYZ
    dof rx ry rz
    limits (-20.0 45.0)
           (-30.0 30.0)
           (-30.0 30.0)
  end
  begin
     id 15 
     name upperneck
     direction 0.0732272 0.979935 -0.18538   
     length 1.57486   
     axis 0 0 0   XYZ
    dof rx ry rz
    limits (-20.0 45.0)
           (-30.0 30.0)
           (-30.0 30.0)
  end
  begin
     id 16
     name head
     direction 0.0252963 0.997909 -0.059472  
     length 1.60334  
     axis 0 0 0   XYZ
    dof rx ry rz
    limits (-20.0 45.0)
           (-30.0 30.0)
           (-30.0 30.0)
  end
  begin
     id 17 
     name lclavicle
     direction 0.943819 0.330449 0.00315172  
     length 3.50322  
     axis 0 0 0   XYZ
    dof ry rz
    limits (-20.0 10.0)
           (0.0 20.0)
  end
  begin
     id 18 
     name lhumerus
     direction 1 -4.48949e-011 2.22502e-028   
     length 4.63208   
     axis 180 -30 -90   XYZ
    dof rx ry rz
    limits (-60.0 90.0)
           (-90.0 90.0)
           (-90.0 90.0)
  end
  begin
     id 19
     name lradius
     direction 1 -4.48967e-011 -4.10197e-027   
     length 3.41924   
     axis 180 -30 -90   XYZ
    dof rx
    limits (-10.0 170.0)
  end
  begin
     id 20
     name lwrist
     direction 1 -4.48987e-011 -1.24264e-027   
     length 1.70962   
     axis 2.50585e-015 90 90   XYZ
    dof ry
    limits (-180.0 0.0)
 end
  begin
     id 21 
     name lhand
     direction 1 -4.48983e-011 -2.48528e-027   
     length 0.62537   
     axis 1.58582e-015 90 90   XYZ
    dof rx rz
    limits (-90.0 90.0)
           (-45.0 45.0)
  end
  begin
     id 22 
     name lfingers
     direction 1 -4.48896e-011 -4.97056e-027   
     length 0.50419   
     axis 3.17164e-015 90 90   XYZ
    dof rx
    limits (0.0 90.0)
  end
  begin
     id 23
     name lthumb
     direction 0.707107 -6.34803e-011 0.707107   
     length 0.723919   
     axis -90 45 2.85299e-015   XYZ
    dof rx rz
    limits (-45.0 45.0)
           (-45.0 45.0)
  end
  begin
     id 24 
     name rclavicle
     direction -0.964499 0.260664 -0.0423695   
     length 3.91997  
     axis 0 0 0   XYZ 
    dof ry rz
    limits (-10.0 20.0)
           (-20.0 0.0)
  end
  begin
     id 25 
     name rhumerus
     direction -1 -4.48957e-011 -1.98656e-027  
     length 4.4064   
     axis 180 30 90   XYZ
    dof rx ry rz
    limits (-90.0 60.0)
           (-90.0 90.0)
           (-90.0 90.0)
  end
  begin
     id 26 
     name rradius
     direction -1 -4.48968e-011 1.96972e-027   
     length 3.44675   
     axis 180 30 90   XYZ
    dof rx
    limits (-10.0 170.0)
  end
  begin
     id 27 
     name rwrist
     direction -1 -4.48974e-011 -1.24264e-027   
     length 1.72338   
     axis 2.50585e-015 -90 -90   XYZ
    dof ry
    limits (-180.0 0.0)
  end
  begin
     id 28
     name rhand
     direction -1 -4.48901e-011 -2.48528e-027   
     length 0.513674   
     axis 1.58582e-015 -90 -90   XYZ
    dof rx rz
    limits (-90.0 90.0)
           (-45.0 45.0)
  end
  begin
     id 29
     name rfingers
     direction -1 -4.48946e-011 -4.97056e-027   
     length 0.414137   
     axis 3.17164e-015 -90 -90   XYZ
    dof rx
    limits (0.0 90.0)
  end
  begin
     id 30
     name rthumb
     direction -0.707107 -6.34859e-011 0.707107   
     length 0.59462   
     axis -90 -45 -2.85299e-015   XYZ
    dof rx rz
    limits (-45.0 45.0)
           (-45.0 45.0)
  end
:hierarchy
  begin
    root lhipjoint rhipjoint lowerback
    lhipjoint lfemur
    lfemur ltibia
    ltibia lfoot
    lfoot ltoes
    rhipjoint rfemur
    rfemur rtibia
    rtibia rfoot
    rfoot rtoes
    lowerback upperback
    upperback thorax
    thorax lowerneck lclavicle rclavicle
    lowerneck upperneck
    upperneck head
    lclavicle lhumerus
    lhumerus lradius
    lradius lwrist
    lwrist lhand lthumb
    lhand lfingers
    rclavicle rhumerus
    rhumerus rradius
    rradius rwrist
    rwrist rhand rthumb
    rhand rfingers
  end

#!OML:ASF E:\inclinewalkrobotboard\Project 1\Capture day 1\Session 1\subject1.ASF
:FULLY-SPECIFIED
:DEGREES
1
root 8.36665 16.631 23.8654 -169.668 2.20748 -179.544
lowerback -8.41559 2.10679 -5.41462
upperback -0.0430024 3.31564 1.15781
thorax 4.30146 1.5324 4.64346
lowerneck -8.59945 0.868625 -4.00642
upperneck 27.0216 -1.98085 7.03286
head 10.0632 -1.31755 2.82382
rclavicle -7.64079e-015 6.36111e-015
rhumerus -42.6116 -29.8844 -71.043
rradius 28.4621
rwrist 15.7339
rhand -16.4564 -43.9574
rfingers 7.12502
rthumb 9.75986 -73.7112
lclavicle -7.64079e-015 6.36111e-015
lhumerus -27.7999 5.90928 90.8969
lradius 18.2909
lwrist -25.3628
lhand -28.6494 -18.7222
lfingers 7.12502
lthumb -2.0131 11.248
rfemur -9.27527 -0.0475196 21.6865
rtibia 8.59556
rfoot -13.7483 -3.89467
rtoes 2.01759
lfemur -11.2782 -8.55346 -17.6277
ltibia 13.6834
lfoot -16.0771 4.13053
ltoes -55.3232
2
root 8.36797 16.6305 23.8658 -169.727 2.1686 -179.692
lowerback -8.43482 2.09334 -5.52337
upperback -0.0469432 3.31302 1.07263
thorax 4.30759 1.52935 4.61598
lowerneck -8.62786 0.93746 -4.02366
upperneck 27.0367 -1.96636 7.32311
head 10.0751 -1.28425 2.93208
rclavicle -4.2602e-014 -6.85807e-015
rhumerus -42.6635 -30.405 -70.9489
rradius 28.1146
rwrist 15.5674
rhand -17.9887 -42.4493
rfingers 7.12502
rthumb 8.28124 -72.267
lclavicle -4.2602e-014 -6.85807e-015
lhumerus -27.6437 5.43691 91.0329
lradius 18.2283
lwrist -25.7289
lhand -28.7676 -18.6429
lfingers 7.12502
lthumb -2.12726 11.3262
rfemur -9.19146 -0.0495265 21.5198
rtibia 8.53771
rfoot -13.7531 -4.28801
rtoes -3.69371
lfemur -11.1365 -8.64692 -17.8184
ltibia 13.5315
lfoot -15.9981 4.24807
ltoes -55.672
3
root 8.36925 16.6296 23.8681 -169.749 2.1599 -179.673
lowerback -8.49588 2.14598 -5.47366
upperback -0.0641271 3.38485 1.01494
thorax 4.3217 1.56674 4.53796
lowerneck -8.6081 0.902023 -3.93606
upperneck 27.0706 -2.09446 7.46587
head 10.0935 -1.32554 2.95346
rclavicle 1.46914e-014 -3.13086e-015
rhumerus -42.8389 -30.9001 -70.8242
rradius 28.0166
rwrist 15.7806
rhand -18.368 -42.5809
rfingers 7.12502
rthumb 7.91512 -72.4127
lclavicle 1.46914e-014 -3.13086e-015
lhumerus -27.6285 4.66013 91.2214
lradius 18.4313
lwrist -25.9975
lhand -28.9146 -18.2697
lfingers 7.12502
lthumb -2.26921 11.698
rfemur -9.1825 0.0876235 21.5661
rtibia 8.55245
rfoot -13.7845 -4.59217
rtoes -8.88589
lfemur -11.0312 -8.66788 -17.7837
ltibia 13.3634
lfoot -15.9681 4.25821
ltoes -55.7226
4
root 8.36998 16.6294 23.8702 -169.772 2.19743 -179.682
lowerback -8.55189 2.15153 -5.50027
upperback -0.0596329 3.39817 1.02206
thorax 4.35441 1.57152 4.56515
lowerneck -8.67096 0.925943 -3.93601
upperneck 27.0894 -2.07889 7.54052
head 10.1121 -1.30876 2.98254
rclavicle -1.12624e-014 -5.1684e-015
rhumerus -42.9254 -31.0974 -70.755
rradius 28.0062
rwrist 16.0743
rhand -19.3107 -40.1454
rfingers 7.12502
rthumb 7.00523 -70.0095
lclavicle -1.12624e-014 -5.1684e-015
lhumerus -27.5649 4.31931 91.3255
lradius 18.5103
lwrist -26.3056
lhand -28.9999 -18.152
lfingers 7.12502
lthumb -2.35161 11.8148
rfemur -9.19556 0.186971 21.5677
rtibia 8.60703
rfoot -13.7837 -4.71899
rtoes -16.1361
lfemur -10.9044 -8.66633 -17.7848
ltibia 13.1611
lfoot -15.9094 4.28327
ltoes -55.7874
5
root 8.37213 16.6296 23.8744 -169.84 2.23755 -179.765
lowerback -8.47921 2.12664 -5.63003
upperback -0.0790753 3.37284 1.03084
thorax 4.28845 1.55911 4.6399
lowerneck -8.68203 1.00771 -4.00148
upperneck 27.0431 -1.96568 7.65396
head 10.0901 -1.2482 3.04661
rclavicle 2.28602e-015 -3.27995e-015
rhumerus -43.1407 -31.3264 -70.5067
rradius 27.9896
rwrist 16.7295
rhand -17.3558 -43.323
rfingers 7.12502
rthumb 8.89201 -73.1156
lclavicle 2.28602e-015 -3.27995e-015
lhumerus -27.4532 4.38735 91.2467
lradius 18.2898
lwrist -26.7427
lhand -29.0546 -18.6952
lfingers 7.12502
lthumb -2.40449 11.271
rfemur -9.1639 0.354244 21.4669
rtibia 8.63726
rfoot -13.7542 -4.51069
rtoes -23.367
lfemur -10.7639 -8.66843 -17.8732
ltibia 12.9994
lfoot -15.8438 4.30459
ltoes -55.727
6
root 8.37354 16.6283 23.878 -169.931 2.30441 -179.787
lowerback -8.38444 2.15228 -5.67097
upperback -0.119916 3.40605 1.00641
thorax 4.18768 1.57995 4.63403
lowerneck -8.65327 1.04796 -3.92529
upperneck 27.0602 -1.9429 7.69076
head 10.0891 -1.2299 3.04867
rclavicle -1.40267e-014 -6.70898e-015
rhumerus -43.4946 -31.6895 -70.1763
rradius 27.914
rwrist 17.3856
rhand -16.8179 -43.2661
rfingers 7.12502
rthumb 9.41102 -73.036
lclavicle -1.40267e-014 -6.70898e-015
lhumerus -27.388 4.57108 90.9972
lradius 17.9452
lwrist -27.2939
lhand -29.0793 -19.5574
lfingers 7.12502
lthumb -2.42832 10.4085
rfemur -9.09215 0.630455 21.443
rtibia 8.6486
rfoot -13.8364 -4.63481
rtoes -16.9597
lfemur -10.5812 -8.59662 -17.8961
ltibia 12.8195
lfoot -15.7626 4.3186
ltoes -55.6386
